<?xml version="1.0" encoding="UTF-8"?>
<svg width="512px" height="384px" viewBox="0 0 512 384" version="1.1" xmlns="http://www.w3.org/2000/svg" xmlns:xlink="http://www.w3.org/1999/xlink">
    <!-- Generator: Sketch 49 (51002) - http://www.bohemiancoding.com/sketch -->
    <title>coupon2-wht</title>
    <desc>Created with Sketch.</desc>
    <defs></defs>
    <g id="Page-1" stroke="none" stroke-width="1" fill="none" fill-rule="evenodd">
        <g id="Group-7" fill="#FFFFFF" fill-rule="nonzero">
            <g id="coupon2-wht">
                <path d="M501.333,138.667 C507.229,138.667 512,133.896 512,128 L512,42.667 C512,19.135 492.865,0 469.333,0 L42.667,0 C19.135,0 0,19.135 0,42.667 L0,128 C0,133.896 4.771,138.667 10.667,138.667 C40.073,138.667 64,162.594 64,192 C64,221.406 40.073,245.333 10.667,245.333 C4.771,245.333 0,250.104 0,256 L0,341.333 C0,364.865 19.135,384 42.667,384 L469.334,384 C492.865,384 512,364.865 512,341.333 L512,256 C512,250.104 507.229,245.333 501.333,245.333 C471.927,245.333 448,221.406 448,192 C448,162.594 471.927,138.667 501.333,138.667 Z M426.667,192 C426.667,229.552 454.532,260.719 490.667,265.906 L490.667,341.333 C490.667,353.093 481.094,362.666 469.334,362.666 L42.667,362.666 C30.907,362.666 21.334,353.093 21.334,341.333 L21.334,265.906 C57.469,260.718 85.334,229.552 85.334,192 C85.334,154.448 57.469,123.281 21.334,118.094 L21.334,42.667 C21.334,30.907 30.907,21.334 42.667,21.334 L469.334,21.334 C481.094,21.334 490.667,30.907 490.667,42.667 L490.667,118.094 C454.531,123.281 426.667,154.448 426.667,192 Z" id="Shape"></path>
                <path d="M138.667,40 C132.771,40 128,44.771 128,50.667 L128,74.667 C128,80.563 132.771,85.334 138.667,85.334 C144.563,85.334 149.334,80.563 149.334,74.667 L149.334,50.667 C149.333,44.771 144.563,40 138.667,40 Z" id="Shape"></path>
                <path d="M138.667,128 C132.771,128 128,132.771 128,138.667 L128,160 C128,165.896 132.771,170.667 138.667,170.667 C144.563,170.667 149.334,165.896 149.334,160 L149.334,138.667 C149.333,132.771 144.563,128 138.667,128 Z" id="Shape"></path>
                <path d="M138.667,213.333 C132.771,213.333 128,218.104 128,224 L128,245.333 C128,251.229 132.771,256 138.667,256 C144.563,256 149.334,251.229 149.334,245.333 L149.334,224 C149.333,218.104 144.563,213.333 138.667,213.333 Z" id="Shape"></path>
                <path d="M138.667,298.667 C132.771,298.667 128,303.438 128,309.334 L128,330.667 C128,336.563 132.771,341.334 138.667,341.334 C144.563,341.334 149.334,336.563 149.334,330.667 L149.334,309.334 C149.333,303.438 144.563,298.667 138.667,298.667 Z" id="Shape"></path>
                <path d="M357.917,87.125 C352.979,83.854 346.386,85.177 343.125,90.083 L215.125,282.083 C211.854,286.989 213.177,293.604 218.083,296.875 C219.906,298.083 221.958,298.667 223.989,298.667 C227.437,298.667 230.822,297 232.874,293.917 L360.874,101.917 C364.146,97.01 362.823,90.396 357.917,87.125 Z" id="Shape"></path>
                <path d="M277.333,138.667 C277.333,109.261 258.198,85.334 234.666,85.334 C211.134,85.334 192,109.26 192,138.667 C192,168.074 211.135,192 234.667,192 C258.199,192 277.333,168.073 277.333,138.667 Z M213.333,138.667 C213.333,121.323 223.104,106.667 234.666,106.667 C246.228,106.667 255.999,121.323 255.999,138.667 C255.999,156.011 246.228,170.667 234.666,170.667 C223.104,170.667 213.333,156.01 213.333,138.667 Z" id="Shape"></path>
                <path d="M341.333,192 C317.802,192 298.666,215.927 298.666,245.333 C298.666,274.739 317.801,298.666 341.333,298.666 C364.864,298.666 384,274.739 384,245.333 C384,215.927 364.865,192 341.333,192 Z M341.333,277.333 C329.77,277.333 320,262.677 320,245.333 C320,227.989 329.771,213.333 341.333,213.333 C352.896,213.333 362.666,227.989 362.666,245.333 C362.666,262.677 352.896,277.333 341.333,277.333 Z" id="Shape"></path>
            </g>
        </g>
    </g>
</svg>