<?xml version="1.0" encoding="UTF-8"?>
<svg width="512px" height="342px" viewBox="0 0 512 342" version="1.1" xmlns="http://www.w3.org/2000/svg" xmlns:xlink="http://www.w3.org/1999/xlink">
    <!-- Generator: Sketch 49 (51002) - http://www.bohemiancoding.com/sketch -->
    <title>gift-card-wht</title>
    <desc>Created with Sketch.</desc>
    <defs></defs>
    <g id="Page-1" stroke="none" stroke-width="1" fill="none" fill-rule="evenodd">
        <g id="Group-8" transform="translate(0.000000, -21.000000)" fill="#FFFFFF" fill-rule="nonzero">
            <g id="gift-card-wht" transform="translate(0.000000, 21.000000)">
                <path d="M458.667,0.333 L53.333,0.333 C23.915,0.333 0,24.269 0,53.667 L0,288.334 C0,317.731 23.915,341.667 53.333,341.667 L458.666,341.667 C488.085,341.667 511.999,317.731 511.999,288.334 L511.999,53.667 C512,24.269 488.085,0.333 458.667,0.333 Z M490.667,288.333 C490.667,305.976 476.31,320.333 458.667,320.333 L53.333,320.333 C35.69,320.333 21.333,305.976 21.333,288.333 L21.333,53.667 C21.333,36.024 35.69,21.667 53.333,21.667 L458.666,21.667 C476.309,21.667 490.666,36.024 490.666,53.667 L490.666,288.333 L490.667,288.333 Z" id="Shape"></path>
                <path d="M160,213.667 L74.667,213.667 C68.779,213.667 64,218.446 64,224.334 C64,230.222 68.779,235 74.667,235 L160,235 C165.888,235 170.667,230.221 170.667,224.333 C170.667,218.445 165.888,213.667 160,213.667 Z" id="Shape"></path>
                <path d="M224,256.333 L74.667,256.333 C68.779,256.333 64,261.112 64,267 C64,272.888 68.779,277.667 74.667,277.667 L224,277.667 C229.888,277.667 234.667,272.888 234.667,267 C234.667,261.112 229.888,256.333 224,256.333 Z" id="Shape"></path>
                <path d="M236.16,47.864 C223.68,44.131 209.771,48.973 201.899,59.576 C195.883,67.64 194.048,77.688 196.864,87.16 C211.541,136.525 257.792,171 309.333,171 C315.221,171 320,166.221 320,160.333 C320,108.792 285.525,62.541 236.16,47.864 Z M217.301,81.08 C216.085,77.048 217.834,73.869 218.986,72.333 C221.055,69.56 224.191,67.896 227.349,67.896 C228.245,67.896 229.162,68.045 230.058,68.301 C266.794,79.224 293.439,111.522 297.962,148.984 C260.48,144.44 228.224,117.795 217.301,81.08 Z" id="Shape"></path>
                <path d="M416.768,59.576 C408.875,48.995 394.987,44.131 382.507,47.864 C333.142,62.541 298.667,108.792 298.667,160.333 C298.667,166.221 303.446,171 309.334,171 C360.875,171 407.126,136.525 421.803,87.16 C424.619,77.709 422.784,67.64 416.768,59.576 Z M401.344,81.08 C390.443,117.816 358.165,144.461 320.683,148.984 C325.206,111.501 351.872,79.224 388.587,68.301 C389.504,68.045 390.422,67.896 391.318,67.896 C394.475,67.896 397.611,69.56 399.659,72.333 C400.811,73.869 402.56,77.048 401.344,81.08 Z" id="Shape"></path>
                <path d="M309.333,0.333 C303.445,0.333 298.666,5.112 298.666,11 L298.666,331 C298.666,336.888 303.445,341.667 309.333,341.667 C315.221,341.667 320,336.888 320,331 L320,11 C320,5.112 315.221,0.333 309.333,0.333 Z" id="Shape"></path>
                <path d="M316.864,152.803 C312.704,148.643 305.941,148.643 301.781,152.803 L237.781,216.803 C233.621,220.963 233.621,227.726 237.781,231.886 C239.872,233.955 242.602,235.001 245.333,235.001 C248.064,235.001 250.794,233.956 252.864,231.886 L316.864,167.886 C321.024,163.725 321.024,156.963 316.864,152.803 Z" id="Shape"></path>
                <path d="M380.864,216.803 L316.864,152.803 C312.704,148.643 305.941,148.643 301.781,152.803 C297.621,156.963 297.621,163.726 301.781,167.886 L365.781,231.886 C367.872,233.955 370.602,235.001 373.333,235.001 C376.064,235.001 378.794,233.956 380.864,231.886 C385.024,227.725 385.024,220.963 380.864,216.803 Z" id="Shape"></path>
                <path d="M501.333,149.667 L10.667,149.667 C4.779,149.667 0,154.445 0,160.333 C0,166.221 4.779,171 10.667,171 L501.334,171 C507.222,171 512.001,166.221 512.001,160.333 C512.001,154.445 507.221,149.667 501.333,149.667 Z" id="Shape"></path>
            </g>
        </g>
    </g>
</svg>