<?xml version="1.0" encoding="iso-8859-1"?>
<!-- Generator: Adobe Illustrator 17.1.0, SVG Export Plug-In . SVG Version: 6.00 Build 0)  -->
<!DOCTYPE svg PUBLIC "-//W3C//DTD SVG 1.1//EN" "http://www.w3.org/Graphics/SVG/1.1/DTD/svg11.dtd">
<svg version="1.1" id="Capa_1" xmlns="http://www.w3.org/2000/svg" xmlns:xlink="http://www.w3.org/1999/xlink" x="0px" y="0px"
	 viewBox="0 0 384.328 384.328" style="enable-background:new 0 0 384.328 384.328;" xml:space="preserve">
<path fill="#ffffff" d="M251.918,297.914c0,4.971-4.029,9-9,9h-10.964c-4.971,0-9-4.029-9-9s4.029-9,9-9h10.964
	C247.888,288.914,251.918,292.943,251.918,297.914z M134.844,291.914H44.413V179.303l0.948,0.929
	c3.472,3.559,9.191,3.628,12.748,0.156c3.558-3.471,3.638-9.169,0.167-12.727l-16.226-16.636c-0.089-0.094-0.342-0.187-0.435-0.278
	c-0.012-0.012-0.2-0.022-0.2-0.034v0.109c0-0.006,0.319,0.092,0.312,0.092c0,0-0.001,0-0.001,0c-0.006,0-0.013-0.123-0.019-0.129
	c-0.865-0.825-1.853-1.639-2.902-2.053c-0.944-0.373-1.966-0.818-3.036-0.818c-0.008,0-0.013,0-0.019,0c-0.007,0-0.018,0-0.023,0
	c-0.077,0-0.153-0.002-0.229-0.002c-0.039,0-0.092,0.002-0.116,0.002c-0.009,0,0.033,0,0.033,0v0.138
	c0,0.001-0.165,0.072-0.232,0.075c-0.772,0.029-1.535,0.19-2.245,0.402c-1.353,0.402-2.639,1.147-3.72,2.202
	c-0.093,0.091-0.189,0.192-0.277,0.286l-16.232,16.64c-3.471,3.558-3.402,9.258,0.156,12.73c3.558,3.47,9.214,3.4,12.685-0.156
	l0.865-0.929v121.299c0,0.076,0.038,0.153,0.038,0.23c0,3.175,1.665,5.967,4.149,7.568c1.405,0.907,3.089,1.475,4.885,1.475
	c0.062,0,0.135,0.04,0.196,0.04h99.162c4.971,0,9-4.029,9-9S139.815,291.914,134.844,291.914z M135.942,99.914h10.964
	c4.971,0,9-4.029,9-9s-4.029-9-9-9h-10.964c-4.971,0-9,4.029-9,9S130.971,99.914,135.942,99.914z M107.341,90.914
	c0-4.971-4.029-9-9-9H87.377c-4.971,0-9,4.029-9,9s4.029,9,9,9h10.964C103.312,99.914,107.341,95.885,107.341,90.914z
	 M39.554,112.503c2.608,0.432,5.469-0.305,7.486-2.014c2.017-1.711,3.373-4.221,3.373-6.865V84.741
	C50.413,47.94,80.215,18,117.016,18c2.273,0,4.448,0.114,6.664,0.337c-9.273,14.997-23.1,25.85-38.691,30.211
	c-4.787,1.339-7.599,6.305-6.26,11.092c1.339,4.786,6.297,7.581,11.083,6.242c21.665-6.06,40.475-21.68,51.989-43.058
	c24.494,9.895,41.821,33.921,41.821,61.917c0,28.749-18.19,54.099-44.909,63.292c-3.002-2.685-6.964-4.119-11.299-4.119h-21.069
	c-9.357,0-16.969,7.643-16.969,17s7.612,17,16.969,17h21.069c7.743,0,14.292-5.444,16.32-12.544
	c25.532-8.484,44.935-28.502,53.302-53.251c11.323-2.605,18.379-9.57,18.379-18.014v-21.87c0-8.759-7.599-15.801-19.657-18.172
	C183.439,22.456,152.731,0,116.819,0C80.861,0,49.983,22.51,37.696,54.18c-11.73,2.479-19.283,9.436-19.283,18.055v21.87
	C18.413,103.162,26.779,110.385,39.554,112.503z M371.464,193.546c-3.557-3.47-9.465-3.401-12.936,0.157l-1.115,0.928V73.27
	c0-0.055,0.211-0.109,0.211-0.165c0-2.068-0.593-4.069-1.766-5.589c-1.681-2.179-4.269-3.601-7.212-3.601h-99.162
	c-4.971,0-9,4.029-9,9s4.029,9,9,9h89.929v112.719l-0.698-0.93c-3.471-3.558-9.065-3.628-12.622-0.156
	c-3.558,3.471-3.576,9.169-0.104,12.727l16.257,16.635c0.089,0.095,0.193,0.188,0.287,0.279c0.989,0.965,2.151,1.656,3.378,2.075
	c0.003-0.001,0.011,0.003,0.014,0.004c0.911,0.311,1.889,0.479,2.905,0.479c1.053,0,2.065-0.181,3.004-0.514
	c1.193-0.421,2.318-1.103,3.283-2.045c0.093-0.09,0.183-0.182,0.271-0.274l16.232-16.639
	C375.092,202.715,375.022,197.018,371.464,193.546z M357.848,290.563l-1.282,15.261c-0.416,4.952-4.771,8.623-9.722,8.215
	c-0.63-0.054-1.24-0.17-1.823-0.344c-6.737,40.035-41.646,70.634-83.567,70.634c-41.921,0-76.831-30.599-83.568-70.634
	c-0.583,0.174-1.193,0.29-1.823,0.344c-4.941,0.421-9.306-3.261-9.722-8.215l-1.283-15.261c-0.417-4.953,3.261-9.306,8.214-9.723
	c1.906-0.162,3.73,0.288,5.271,1.183c8.11-38.326,42.205-67.177,82.912-67.177c21.952,0,41.979,8.389,57.047,22.13
	c0.386,0.299,0.753,0.633,1.096,1.002c0.036,0.038,0.071,0.077,0.106,0.116c12.249,11.607,21.042,26.823,24.661,43.929
	c1.54-0.895,3.365-1.34,5.269-1.183C354.586,281.257,358.264,285.609,357.848,290.563z M328.195,299.587
	c0-16.451-5.983-31.531-15.888-43.179c-14.615,10.987-32.369,16.954-50.854,16.954c-7.58,0-15.106-1.005-22.372-2.987
	c-4.795-1.309-7.622-6.256-6.314-11.052s6.26-7.624,11.051-6.313c5.722,1.561,11.655,2.353,17.635,2.353
	c13.327,0,26.173-3.939,37.08-11.244c-10.613-7.118-23.37-11.272-37.08-11.272c-36.802,0-66.742,29.94-66.742,66.741
	s29.94,66.741,66.742,66.741C298.255,366.328,328.195,336.388,328.195,299.587z M264.194,327.914h-5.48c-4.971,0-9,4.029-9,9
	s4.029,9,9,9h5.48c4.971,0,9-4.029,9-9S269.165,327.914,264.194,327.914z M291.481,288.914h-10.963c-4.971,0-9,4.029-9,9
	s4.029,9,9,9h10.963c4.971,0,9-4.029,9-9S296.452,288.914,291.481,288.914z"/>
<g>
</g>
<g>
</g>
<g>
</g>
<g>
</g>
<g>
</g>
<g>
</g>
<g>
</g>
<g>
</g>
<g>
</g>
<g>
</g>
<g>
</g>
<g>
</g>
<g>
</g>
<g>
</g>
<g>
</g>
</svg>
