<?xml version="1.0" encoding="utf-8"?>
<!-- Generator: Adobe Illustrator 22.0.1, SVG Export Plug-In . SVG Version: 6.00 Build 0)  -->
<svg version="1.1" id="Capa_1" xmlns="http://www.w3.org/2000/svg" xmlns:xlink="http://www.w3.org/1999/xlink" x="0px" y="0px"
	 viewBox="0 0 480 480" style="enable-background:new 0 0 480 480;" xml:space="preserve">
<style type="text/css">
	.st0{fill:#31C3E4;}
</style>
<g>
	<g>
		<path d="M456,248h-8v-96V48c0-4.4-3.6-8-8-8H328h-32V8c0-4.4-3.6-8-8-8H112c-4.4,0-8,3.6-8,8v40H56C25.1,48,0,73.1,0,104v320
			c0,30.9,25.1,56,56,56h384c4.4,0,8-3.6,8-8v-96h8c13.2,0,24-10.8,24-24v-80C480,258.8,469.2,248,456,248z M336,56h96v88h-56V88
			c0-4.4-3.6-8-8-8h-32V56z M360,96v48H200V96H360z M320,56v24H192c-4.4,0-8,3.6-8,8v56h-24V56H320z M120,16h160v24H152
			c-4.4,0-8,3.6-8,8v96h-24V16z M56,64h48v80H56c-22.1,0-40-17.9-40-40S33.9,64,56,64z M432,464H56c-22.1,0-40-17.9-40-40V143.2
			C26.2,153.5,40.3,160,56,160h136h176h64v88h-56c-35.3,0-64,28.7-64,64s28.7,64,64,64h56V464z M464,352c0,4.4-3.6,8-8,8h-80
			c-26.5,0-48-21.5-48-48s21.5-48,48-48h80c4.4,0,8,3.6,8,8V352z"/>
	</g>
</g>
<g>
	<g>
		<path d="M376,280c-17.6,0-32,14.4-32,32s14.4,32,32,32s32-14.4,32-32S393.6,280,376,280z M376,328c-8.8,0-16-7.2-16-16
			s7.2-16,16-16s16,7.2,16,16S384.8,328,376,328z"/>
	</g>
</g>
<g>
	<g>
		<rect x="104" y="192" class="st0" width="16" height="16"/>
	</g>
</g>
<g>
	<g>
		<rect x="136" y="192" class="st0" width="16" height="16"/>
	</g>
</g>
<g>
	<g>
		<rect x="104" y="224" class="st0" width="16" height="16"/>
	</g>
</g>
<g>
	<g>
		<rect x="104" y="256" class="st0" width="16" height="16"/>
	</g>
</g>
<g>
	<g>
		<rect x="104" y="288" class="st0" width="16" height="16"/>
	</g>
</g>
<g>
	<g>
		<rect x="104" y="320" class="st0" width="16" height="16"/>
	</g>
</g>
<g>
	<g>
		<rect x="104" y="352" class="st0" width="16" height="16"/>
	</g>
</g>
<g>
	<g>
		<rect x="104" y="384" class="st0" width="16" height="16"/>
	</g>
</g>
<g>
	<g>
		<rect x="104" y="416" class="st0" width="16" height="16"/>
	</g>
</g>
<g>
	<g>
		<rect x="168" y="192" class="st0" width="16" height="16"/>
	</g>
</g>
<g>
	<g>
		<rect x="264" y="224" class="st0" width="16" height="16"/>
	</g>
</g>
<g>
	<g>
		<rect x="264" y="256" class="st0" width="16" height="16"/>
	</g>
</g>
<g>
	<g>
		<rect x="264" y="288" class="st0" width="16" height="16"/>
	</g>
</g>
<g>
	<g>
		<rect x="264" y="320" class="st0" width="16" height="16"/>
	</g>
</g>
<g>
	<g>
		<rect x="264" y="352" class="st0" width="16" height="16"/>
	</g>
</g>
<g>
	<g>
		<rect x="264" y="384" class="st0" width="16" height="16"/>
	</g>
</g>
<g>
	<g>
		<rect x="168" y="416" class="st0" width="16" height="16"/>
	</g>
</g>
<g>
	<g>
		<rect x="200" y="192" class="st0" width="16" height="16"/>
	</g>
</g>
<g>
	<g>
		<rect x="200" y="416" class="st0" width="16" height="16"/>
	</g>
</g>
<g>
	<g>
		<rect x="232" y="192" class="st0" width="16" height="16"/>
	</g>
</g>
<g>
	<g>
		<rect x="232" y="416" class="st0" width="16" height="16"/>
	</g>
</g>
<g>
	<g>
		<rect x="264" y="192" class="st0" width="16" height="16"/>
	</g>
</g>
<g>
	<g>
		<rect x="264" y="416" class="st0" width="16" height="16"/>
	</g>
</g>
<g>
	<g>
		<rect x="136" y="416" class="st0" width="16" height="16"/>
	</g>
</g>
<g>
	<g>
		<path class="st0" d="M200,304h-16c-8.8,0-16-7.2-16-16s7.2-16,16-16h16c8.8,0,16,7.2,16,16h16c0-17.6-14.4-32-32-32v-16h-16v16
			c-17.6,0-32,14.4-32,32s14.4,32,32,32h16c8.8,0,16,7.2,16,16s-7.2,16-16,16h-16c-8.8,0-16-7.2-16-16h-16c0,17.6,14.4,32,32,32v16
			h16v-16c17.6,0,32-14.4,32-32S217.6,304,200,304z"/>
	</g>
</g>
</svg>
